<svg xmlns="http://www.w3.org/2000/svg" xmlns:xlink="http://www.w3.org/1999/xlink" width="250" zoomAndPan="magnify" viewBox="0 0 187.5 187.499992" height="250" preserveAspectRatio="xMidYMid meet" version="1.0"><defs><clipPath id="54a5dcc768"><path d="M 3.175781 57.492188 L 181.203125 57.492188 L 181.203125 120.324219 L 3.175781 120.324219 Z M 3.175781 57.492188 " clip-rule="nonzero"/></clipPath></defs><g clip-path="url(#54a5dcc768)"><path fill="#ffffff" d="M 179.332031 86.90625 C 171.554688 83.195312 118.542969 84.738281 87.640625 85.988281 C 75 86.496094 62.011719 87.140625 50.078125 87.804688 C 54.121094 81.652344 57.734375 76.261719 60.703125 71.925781 C 60.820312 72.082031 60.957031 72.238281 61.132812 72.355469 C 61.875 72.84375 62.851562 72.628906 63.339844 71.90625 C 71.191406 59.96875 70.15625 58.914062 69.316406 58.09375 C 68.847656 57.625 68.066406 57.507812 67.480469 57.761719 C 65.546875 58.621094 52.304688 78.605469 46.699219 87.160156 C 46.503906 87.453125 46.328125 87.746094 46.132812 88.039062 C 41.96875 88.292969 37.945312 88.527344 34.136719 88.78125 C 46.777344 69.695312 46.777344 67.820312 46.777344 67.175781 C 46.777344 66.609375 46.542969 66.082031 46.09375 65.671875 C 44.273438 63.972656 37.691406 63.914062 16.695312 65.320312 C 15.71875 65.378906 14.722656 65.457031 13.785156 65.515625 C 13.804688 65.339844 13.785156 65.183594 13.726562 65.007812 C 13.511719 64.167969 12.628906 63.660156 11.789062 63.875 C 6.984375 65.144531 6.496094 65.964844 6.378906 66.921875 C 6.28125 67.644531 6.632812 68.308594 7.277344 68.679688 C 7.921875 69.050781 8.234375 69.070312 16.910156 68.484375 C 23.84375 68.015625 39.390625 66.960938 43.316406 67.820312 C 41.949219 70.929688 36.128906 80.089844 30.171875 89.035156 C 4.796875 90.792969 4.25 91.515625 3.664062 92.277344 C 3.175781 92.902344 3.214844 93.78125 3.742188 94.367188 C 3.976562 94.640625 4.308594 94.816406 4.660156 94.875 C 16.382812 96.925781 19.039062 99.796875 19.566406 101.320312 C 20.328125 103.472656 18.042969 106.089844 16.519531 107.828125 C 15.40625 109.117188 14.722656 109.878906 14.722656 110.875 C 14.722656 111.1875 14.820312 111.539062 14.996094 111.8125 C 15.289062 112.261719 15.816406 112.535156 16.363281 112.535156 C 17.300781 112.535156 17.652344 112.535156 22.710938 105.464844 C 25.289062 101.847656 28.609375 97.023438 31.929688 92.082031 C 35.640625 91.828125 39.683594 91.574219 43.980469 91.320312 C 27.925781 116.050781 28.003906 118.003906 28.042969 118.667969 C 28.082031 119.410156 28.53125 120.015625 29.195312 120.25 C 29.351562 120.308594 29.527344 120.328125 29.703125 120.328125 C 30.367188 120.328125 30.992188 119.898438 31.207031 119.234375 C 31.285156 118.980469 31.304688 118.726562 31.265625 118.472656 C 31.988281 116.441406 37.359375 107.300781 47.910156 91.085938 C 60.898438 90.324219 75.9375 89.582031 91.625 88.976562 C 150.148438 86.710938 174.484375 87.921875 177.886719 89.699219 C 178.023438 90.246094 178.453125 90.695312 179.039062 90.832031 C 179.878906 91.046875 180.757812 90.519531 180.972656 89.679688 C 181.089844 89.289062 181.285156 87.84375 179.332031 86.90625 Z M 22.554688 100.246094 C 21.539062 97.453125 18.472656 95.285156 13.082031 93.605469 C 16.851562 93.234375 21.890625 92.824219 27.945312 92.394531 C 26.070312 95.167969 24.234375 97.84375 22.554688 100.246094 Z M 22.554688 100.246094 " fill-opacity="1" fill-rule="nonzero"/></g><path stroke-linecap="butt" transform="matrix(0.748005, 0, 0, 0.748005, 59.01944, 103.315946)" fill="none" stroke-linejoin="miter" d="M 0.000121662 2.000726 L 79.999351 2.000726 " stroke="#000000" stroke-width="4" stroke-opacity="1" stroke-miterlimit="4"/></svg>